<?xml version="1.0" encoding="utf-8"?>
<svg xmlns="http://www.w3.org/2000/svg" viewBox="0 0 128 128" width="128px" height="128px">
  <defs>
    <linearGradient id="g" x1="0" y1="0" x2="1" y2="1">
      <stop offset="0" stop-color="#0a58ca"/>
      <stop offset="1" stop-color="#1f2937"/>
    </linearGradient>
  </defs>
  <rect width="128" height="128" rx="28" fill="url(#g)" style="stroke-width: 1;" transform="matrix(1, 0, 0, 1, 0, 2.842170943040401e-14)"/>
  <g fill="#ffffff" font-family="Segoe UI, Tahoma, sans-serif" font-weight="800" transform="matrix(1.9438600540161133, 0, 0, 2.0371549129486084, 121.82462310791016, 71.49568176269534)" style=""/>
  <g style="" transform="matrix(0.4990690052509308, 0, 0, 0.6105450391769409, -59.46276092529297, -52.87730407714842)">
    <path d="M 247.306 257.56 C 232.292 257.56 219.923 253.556 210.198 245.547 L 210.198 136.834 C 219.923 128.865 232.292 124.879 247.306 124.879 C 263.115 124.879 276.016 129.303 286.008 138.149 L 286.008 244.32 C 276.016 253.146 263.115 257.559 247.306 257.559 L 247.306 257.56 Z M 274.732 191.178 C 274.732 183.593 273.984 177.134 272.487 171.802 C 270.992 166.469 268.992 162.092 266.489 158.671 C 263.876 155.191 260.924 152.696 257.632 151.184 C 254.339 149.674 250.925 148.919 247.388 148.919 C 243.633 148.919 240.231 149.617 237.185 151.013 C 234.137 152.411 231.198 154.906 228.369 158.5 C 225.866 161.807 223.838 166.198 222.287 171.674 C 220.736 177.148 219.96 183.678 219.96 191.263 C 219.96 199.076 220.695 205.563 222.165 210.724 C 223.634 215.885 225.648 220.205 228.206 223.684 C 230.817 227.22 233.783 229.743 237.103 231.255 C 240.422 232.766 243.85 233.522 247.388 233.522 C 250.979 233.522 254.462 232.709 257.836 231.083 C 261.21 229.458 264.121 226.934 266.57 223.513 C 269.183 219.806 271.196 215.486 272.61 210.553 L 274.732 191.178 Z M 170.524 227.785 C 164.897 227.785 159.953 227.216 155.692 226.078 C 151.431 224.94 147.475 223.526 143.823 221.837 L 143.823 203.525 L 145.501 203.525 C 149.186 206.801 153.25 209.318 157.691 211.077 C 162.133 212.835 166.444 213.715 170.623 213.715 C 171.675 213.715 173.065 213.594 174.793 213.354 C 176.52 213.112 177.911 212.733 178.964 212.215 C 180.247 211.629 181.333 210.81 182.22 209.758 C 183.109 208.707 183.554 207.319 183.554 205.595 C 183.554 203.663 182.83 202.094 181.382 200.887 C 179.935 199.681 178.207 198.802 176.2 198.251 C 173.699 197.561 171.026 196.905 168.18 196.285 C 165.334 195.664 162.677 194.905 160.208 194.007 C 154.516 191.905 150.436 189.077 147.967 185.524 C 145.5 181.973 144.266 177.525 144.266 172.181 C 144.266 164.974 147.178 159.137 153.002 154.672 C 158.826 150.206 166.098 147.974 174.818 147.974 C 179.194 147.974 183.546 148.439 187.873 149.369 C 192.2 150.301 196.074 151.56 199.495 153.146 L 199.495 170.733 L 197.866 170.733 C 195.136 168.284 191.805 166.215 187.873 164.525 C 183.94 162.836 179.901 161.991 175.755 161.991 C 174.143 161.991 172.695 162.111 171.412 162.352 C 170.129 162.594 168.78 163.059 167.365 163.749 C 166.213 164.301 165.218 165.12 164.379 166.206 C 163.54 167.293 163.12 168.508 163.12 169.853 C 163.12 171.818 163.787 173.378 165.12 174.534 C 166.452 175.688 169.027 176.731 172.843 177.663 C 175.312 178.25 177.689 178.819 179.975 179.37 C 182.262 179.922 184.706 180.68 187.305 181.646 C 192.405 183.577 196.197 186.172 198.681 189.43 C 201.165 192.689 202.407 196.991 202.407 202.335 C 202.407 209.991 199.537 216.146 193.796 220.802 C 188.054 225.457 180.296 227.785 170.524 227.785 Z M 352.116 173.68 C 352.116 177.267 351.573 180.681 350.487 183.921 C 349.401 187.163 347.838 189.87 345.798 192.043 C 344.547 193.388 343.174 194.629 341.677 195.767 C 340.179 196.905 338.525 197.871 336.716 198.664 C 334.906 199.457 332.94 200.078 330.819 200.526 C 328.696 200.974 326.319 201.198 323.687 201.198 L 314.012 201.198 L 314.012 226.388 L 295.553 226.388 L 295.553 149.369 L 324.081 149.369 C 328.325 149.369 331.986 149.774 335.062 150.585 C 338.139 151.396 340.927 152.681 343.428 154.44 C 346.193 156.371 348.331 158.948 349.845 162.173 C 351.359 165.397 352.116 169.233 352.116 173.68 Z M 333.163 174.145 C 333.163 171.973 332.669 170.103 331.682 168.535 C 330.694 166.965 329.51 165.887 328.128 165.302 C 326.384 164.509 324.714 164.052 323.119 163.931 C 321.522 163.81 319.359 163.749 316.628 163.749 L 314.012 163.749 L 314.012 186.818 L 315.295 186.818 C 317.039 186.818 318.684 186.801 320.23 186.767 C 321.778 186.732 323.127 186.611 324.279 186.405 C 325.266 186.232 326.31 185.896 327.413 185.396 C 328.514 184.896 329.361 184.336 329.954 183.715 C 331.204 182.439 332.052 181.111 332.496 179.733 C 332.941 178.353 333.163 176.49 333.163 174.145 Z" style="fill: rgb(255, 255, 255); text-wrap-mode: nowrap;"/>
  </g>
</svg>